<svg xmlns="http://www.w3.org/2000/svg" xmlns:xlink="http://www.w3.org/1999/xlink" id="Layer_1" x="0px" y="0px" viewBox="0 0 285.3 154" style="enable-background:new 0 0 285.3 154;" xml:space="preserve"><style type="text/css">	.st0{fill:#010101;}</style><g>	<path d="M280.9,134.5c-1.1-0.7-1.4,0.2-2,0.9c-1.4,1.7-2.8,3.5-4.4,5.1c-1,1-1.8,0.4-1.9-1c0-0.6,0.1-1.2,0.2-1.8  c1.5-8.2,4.4-15.9,7.9-23.4c1.4-3,2.9-5.9,4.4-8.9c-1.1-0.5-2.2-0.9-3.4-1.3c-2.9-1-4.3-0.5-5.7,2.2c-1.1,2.1-2,4.3-3,6.5  c-1.1,2.7-2.2,5.5-3.3,8.2c-3.3-2.9-6.5-3.3-10.2-1.1c-5.8,3.5-8.9,8.9-9.8,15.5c-0.4,2.6-2,3.9-4,5.1c-0.7,0.4-1.1,0-1.2-0.7  c-0.1-0.3,0-0.7,0.1-1c0.7-3.6,2.4-6.7,4-9.9c0.9-1.8,1.6-3.6,2.2-5.5c0.7-2.3-0.2-4-2.6-4.6c-2.6-0.7-5.2-0.5-7,1.8  c-2.4,3.1-4.6,6.3-6.9,9.5c-0.4,0.5-0.7,1.1-1,1.7c-0.1-0.1-0.3-0.2-0.4-0.2c1.7-3.8,5.4-11.3,5.3-11.6c-0.2-0.4-2-0.8-3.1-1.2  c-3.2-1-4.8-0.5-6,2.6c-1.5,3.7-2.6,7.5-3.9,11.3c-0.2,0.6-0.4,1.2-0.8,1.6c-1.5,1.4-3.1,2.8-4.8,3.9c-1.2,0.8-2.7,1.4-4.1,1.9  c-1.8,0.6-3.1-0.3-3.3-2.1c-0.2-1.4,0-2.9,0.1-4.4c0.1,0,0.1-6.4,5.3-10.8c0.8-0.6,1.6-1.3,1.9-1.2c0.3,0.1,0.7,1.2,0.8,2.2  c0.1,1-0.8,4.7-2.6,6.4c-0.4,0.4-1,0.9-1.4,0.8c-0.4,0-0.9-0.1-1.3-0.3c-0.3,1.2-0.4,2.4-0.5,3.6c3.4,0.8,5.8-0.1,8-3  c2.3-3,2.6-6.5,1.5-10.1c-0.5-1.5-1.7-2.5-3.2-2.8c-3.8-0.8-7.3-0.3-10.2,2.3c-5.2,4.6-7.6,10.5-7.2,17.4c0,0.7,0.1,1.3,0.3,1.9  c-0.3,0.1-0.5,0.1-0.8,0.2c-0.2-0.5-0.6-1-1.1-1.4c-0.9-0.7-1.9-1.3-3-1.7c-2.7-1-5.5-1.8-8.3-2.8c-2.1-0.7-4.2-1.4-6.2-2.4  c-2.1-1.1-2.9-3.2-2.1-5.5c0.5-1.6,1.3-3.3,2.4-4.7c3.3-4.3,7.6-7.6,12.5-9.8c1.1-0.5,2.3-0.7,3.4-0.8c1.5-0.1,2.4,0.7,2.2,2.3  c-0.2,1.5-0.5,2.9-1,4.3c-1.9,4.8-4,9.4-9.8,11.2c1,1.3,1.9,2.8,3.1,3.9c1.5,1.5,3.4,1.4,5,0.1c0.8-0.7,1.6-1.5,2.3-2.4  c2.6-3.7,4.1-7.9,5.1-12.2c0.5-2.3,0.9-4.5,0.2-6.8c-1.5-4.8-6.9-6.8-11.1-6.4c-2.9,0.3-5.7,1.3-8.1,2.9c-2.8,1.8-5.9,1.4-9,2.2  c1-1.9,1.9-3.5,2.8-5.3c-1.6-0.6-3-1.2-4.6-1.6c-1.7-0.4-3.2,0.2-4.1,1.8c-0.9,1.6-1.8,3.3-2.6,5c-0.3,0.6-0.6,0.9-1.3,0.8  c-2.2-0.1-4.5-0.1-6.7-0.4c-2.6-0.4-5.4-0.6-7-3.4c-0.4,1.4-0.8,2.7-0.9,4.1c-0.1,1.7,0.5,2.6,2.1,3.1c1.6,0.5,3.3,0.8,4.9,1  c2.1,0.2,4.2,0.2,6.4,0.4c-0.2,0.4-0.3,0.8-0.4,1.2c-1.7,5.4-3.6,10.8-5,16.2c-0.8,3-2.6,5.1-4.8,6.9c-0.3,0.3-0.9,0.6-1.4,0.4  c-0.5-0.2-0.4-0.9-0.3-1.5c0.1-0.6,0.1-0.4,0.1-0.6c1.4-3.6,2.7-7.1,4.2-10.7c1.1-2.5,2.4-5,3.7-7.6c-1.5-0.5-2.8-1.1-4.2-1.5  c-2.3-0.7-3.7-0.1-4.9,2c-0.7,1.3-1.3,2.7-2,4.1c-2.6,5.3-5.8,10.3-9.7,14.9c-0.4,0.5-1.4,1.1-1.7,1s-0.7-1.2-0.4-2.2  c0.8-2.4,1.5-4.8,2.5-7.1c1.6-3.8,3.5-7.4,5.3-11.3c-1.3-0.5-2.6-1.1-3.9-1.5c-2.6-0.8-4.1-0.1-5.3,2.3c-2.3,5-4.4,10.1-5.5,15.6  c-0.2,1.1-0.6,1.9-1.3,2.7c-2.9,3.4-6.6,5.3-10.9,6c-5.6,0.8-9.3-2.9-8.3-8.4c0.5-2.9,1.4-5.7,2.4-8.4c2.1-5.6,5-10.8,9.3-15  c1.7-1.7,3.6-2.9,6-3c2-0.1,2.6,0.8,2.3,2.7c-0.7,3.7-4.2,7.1-8.1,7.9c0.9,1.1,1.6,2.3,2.6,3.2c2.3,2.2,4.4,2.1,6.5-0.3  c0.6-0.6,1.1-1.3,1.4-2.1c1-2.6,2.1-5.3,2.7-8c1-4.1-1.3-7.5-5.5-8.2c-2.2-0.4-4.5-0.3-6.7,0.1c-4.5,0.8-8.1,3.5-11.1,6.9  c-5.6,6.4-9.7,13.6-10.7,22.2c-0.3,2.5-1.7,4-3.5,5.3c-1.2,0.8-1.9,0.4-1.9-1c0-1,0.2-2,0.4-2.9c1.6-8.2,4.6-15.9,8.2-23.5  c1.2-2.6,2.6-5.1,3.9-7.7c-1-0.4-1.9-0.8-2.8-1.1c-3.4-1.3-4.9-0.8-6.6,2.5c-0.2,0.3-0.3,0.7-0.5,1c-1.4,3.4-2.8,6.8-4.2,10.1  c-0.4,1-0.8,2-1.1,2.8c-1.3-0.7-2.4-1.5-3.7-1.9c-2.8-0.9-5.4,0-7.7,1.6c-4.8,3.4-7.6,8-8.6,13.8c-0.4,2-0.9,3.8-2.6,5.1  c-0.7,0.6-1.9,1.4-2.3,1.2c-1-0.5-0.5-1.8-0.2-2.7c1.1-2.8,2.3-5.5,3.5-8.3c0.8-2,1.8-4,2.5-6c0.6-1.8,0-3.2-1.3-4.1  c-1.7-1.1-6.1-1.3-7.8,0.9c-1.5,1.8-3.1,3.6-4.5,5.5c-1.4,2-2.6,4.1-3.9,6.1c-0.1-0.1-0.2-0.1-0.4-0.2c1.7-3.9,3.5-7.7,5.3-11.7  c-1-0.4-2.1-0.9-3.2-1.3c-3.1-1-4.7-0.3-5.9,2.7c-1.2,2.9-2.5,5.9-3.2,8.9c-0.6,2.9-2.1,5-4.4,6.6c-1.9,1.4-3.8,2.8-6.2,3.2  c-1.1,0.2-2-0.1-2.6-0.8c-0.1-0.2-0.3-0.4-0.3-0.7c-0.1-0.6-0.2-1.2-0.2-1.8c-0.2-2.8,0.2-5.6,1.2-8.3c0.9-2.3,3.7-5.4,4.3-5.9  c0.7-0.6,1.5-1.2,1.8-1.1s0.4,1.4,0.6,2c0,0.1,0,0.2,0,0.4c0,2.2-0.6,4.3-2.1,5.9c-0.5,0.5-1.3,1.1-1.9,1.1c-0.3,0-0.7-0.6-0.8-0.2  c-0.1,0.4,0,0,0,0c-0.3,1.2-1.5,3.1-0.5,3.5c1,0.4,3.9,0,5.8-1.2c4.2-2.8,4.7-8.6,3.6-11.7c-0.6-1.7-1.7-2.8-3.5-3.2  c-4.2-0.9-7.9,0.1-10.9,3.1c-4.6,4.6-6.7,10.2-6.4,16.7c0,0.2-0.1-0.1,0.1,0.6c0.2,0.7-0.8,0.3-1.2,0.4c-0.6-0.7-1.6-1.3-2.9-1.8  c-2.6-1.1-5.4-1.9-8.1-2.8c-2.1-0.7-4.3-1.3-6.4-2.3c-2.7-1.3-3.5-3.7-2.5-6.4c0.5-1.5,1.3-2.9,2.3-4.2c3.2-4.1,7.2-7.2,11.9-9.4  c1.3-0.6,2.7-0.9,4.1-1.1c1.4-0.2,2.2,0.7,2.1,2.1c-0.1,1.3-0.3,2.6-0.8,3.8c-1.9,5-4,9.9-9.8,11.8c0.4,0.7,0.8,1.5,1.3,2.3  c2.4,3.5,5.4,3.7,8.2,0.3c2.9-3.5,4.4-7.8,5.6-12.1c0.6-2.3,1.1-4.7,0.6-7.1c-1.1-5.6-7.1-7.8-11.4-7.2c-4.3,0.5-8.1,2.5-11.5,5  c-4,2.9-7.4,6.3-9.3,11c-2,5.1-0.9,9.2,3.4,12.6c3.6,2.8,7.8,4.4,12.1,5.5c0.7,0.2,1.3,0.6,2,1c-0.5,0.7-0.4,1.1-1.8,2.4  c-1.4,1.3-5.8,3.1-9.1,3.7c-3.1,0.6-6.1,0.5-8.4-2.3c-0.2,0.6-0.5,1.2-0.7,1.7c-1.2,3.9,0.5,7,4.4,7.9c1.8,0.4,3.7,0.5,5.5,0.3  c6.6-0.9,12.2-4.1,17.1-8.5c1.5-1,3.1-1.9,4.7-2.4c1.7,2.3,4.6,3.7,7.8,3.4c2.8-0.3,5.2-1.5,7.4-3.2c1.2-0.9,2.3-1.8,3.5-2.8  c0.1,0.8,0.1,1.5,0.2,2.1c0.2,2.6,1.9,4.3,4.4,4.5c0.9,0.1,1.4-0.2,1.8-1.1c1.8-3.8,3.7-7.6,5.8-11.3c1.4-2.5,3.1-4.7,4.7-7  c-0.3,2-1,3.8-1.5,5.6c-0.8,3-1.6,6-1,9.1c0.6,2.7,2.6,4.3,5.3,3.6c1.5-0.4,2.9-1.4,4.2-2.2c0.9-0.6,1.6-1.4,2.4-2.1  c2,5.9,8.1,6.8,11.9,2.3c0.6-0.7,1.6-1.5,1.8-2.2s-0.6-3.7-0.4-4.6s-1.6,0.9-2,1.3c-1.2,1-2.2,0.6-2.6-0.9  c-0.2-0.6-0.2-1.2-0.3-1.8c0.6-4.7,2.4-8.6,5.7-11.9c0.6-0.6,1.6-1,2.4-1c1.5-0.1,2.5,1.5,1.9,2.9c-1.3,2.8-3.9,7.4-4,8.9  c-0.1,1.5,0.3,2.6,0.5,3.7c0.1,0.5,0.2,1,0.3,1.5c0.1,0.5,0.3,1,0.5,1.5c0.2,1.2,0.7,2.3,1.3,3.1c1.6,1.9,4.2,2.4,6.9,0.9  c1-0.5,1.8-1.3,2.7-1.9c0.5-0.4,1-0.9,1.5-1.4c0.2,0.9,0.4,1.8,0.6,2.5c1.6,5.7,5.6,8.7,11.5,8.7c4.6,0,8.6-1.6,12.1-4.5  c2-1.6,3.7-3.4,5.6-5.2c0.1,0.3,0.3,0.6,0.5,0.9c1.5,2.9,7.6,3.5,9.3,0.7c1.1-1.9,2.6-3.6,3.9-5.4c0.2-0.3,0.5-0.7,0.7-1  c0.1,1.4,0,2.6,0.2,3.8c0.4,3.1,3,4.8,5.9,3.6c1.3-0.5,2.5-1.3,3.7-2.2c1-0.7,1.7-1.7,2.7-2.8c0.2,0.7,0.3,1.1,0.4,1.5  c0.8,2.7,3.1,4.2,5.8,3.7c1.1-0.2,2.2-0.7,3.1-1.4c3-2,5.1-4.8,6.8-7.8c0.6-1,0.3-1.7-0.7-2.3c-1-0.6-1.4,0-1.8,0.7  c-0.5,0.9-1,1.7-1.7,2.4c-0.9,1-1.9,2.1-3,2.9c-1,0.8-1.7,0.3-1.8-1c0-0.7,0.1-1.3,0.2-2c1.3-7.2,3.7-14,6.6-20.6  c0.9-2.1,1-2.2,3-2c-1.3,2.3-2.9,4.7-4,7.3c-1.3,3-1.4,6.2,0.7,8.9c1.1,1.5,2.5,2.8,3.9,3.9c3.4,2.5,7.4,3.9,11.5,4.9  c1.8,0.5,2,1.1,0.7,2.4c-0.2,0.2-0.4,0.4-0.5,0.5c-3.5,2.6-7.4,4-11.8,4.2c-2.4,0.1-4.5-0.5-6-2.5c-2.6,4.4-0.7,8.8,4.1,9.6  c2.2,0.3,4.5,0.3,6.7-0.1c5.8-1.1,10.8-4.2,15.2-8c0.3-0.3,0.6-0.6,0.9-0.9c1.4-0.5,2.9-0.9,4.4-1.2c1.7,2,4.3,3.1,7.3,2.9  c3.5-0.3,6.2-2.2,8.9-4.3c0.7-0.5,1.3-1.1,2.1-1.8c0.1,1,0.1,1.7,0.2,2.4c0.3,2.4,1.9,4,4.2,4.3c1,0.1,1.5-0.2,1.9-1.2  c2.5-6.1,5.7-11.9,9.7-17.1c0.2-0.3,0.4-0.5,0.6-0.8c-0.2,1.3-0.6,2.4-1,3.6c-1,3.1-1.8,6.2-1.7,9.4c0.1,4,3.1,6.1,6.7,4.7  c0.7-0.3,1.4-0.7,2-1.1c1.2-0.9,2.2-1.9,3.4-2.9c0.1,0.2,0.2,0.3,0.2,0.4c2,5.1,7,6.3,10.9,2.5c0.8-0.7,1.6-1.6,2.1-2.3  c0.5-0.7-0.4-3.2-0.6-4.6c-0.2-1.1-0.9,0.3-1.4,0.7c-1.2,1-2.2,0.7-2.7-0.8c-0.2-0.6-0.2-1.2-0.3-1.8c0.6-4.7,2.5-8.8,5.9-12.1  c1.1-1.1,2.4-1.2,3.4-0.4c0.9,0.6,1.4,1.4,0.8,2.5c-1.1,2.3-2.7,4.9-3.4,6.8c-0.7,2,0,6.1,0.6,8.6c0.5,2.5,2,4.7,4.7,5.1  c1.6,0.2,3-0.4,4.3-1.3c3-2,5.3-4.7,7-7.9C282.1,135.7,281.9,135.1,280.9,134.5z"></path></g><g>	<path class="st0" d="M194.4,1.5L194.4,1.5L194.4,1.5c-1.2-0.3-2.6,0.3-3.1,1.4c-0.2,0.4-0.3,1-0.2,1.4c-1.3,0.6-2.7,1.3-4.1,1.9v0  C187,6.2,187,6.1,186.9,6c-1.6-2.4-3.5-4.2-4.5-3.7C182.3,2.4,182,2.6,182,3c-0.2,1,0.3,2.7,1.3,4.7c-2-2.9-4.3-5.3-5.6-4.7  c-0.3,0.1-0.4,0.4-0.5,0.9c-0.2,1.2,0.4,3.4,1.7,5.9c-1.5-2-3.1-3.5-4-3c-0.2,0.1-0.4,0.3-0.4,0.7c-0.2,0.9,0.2,2.3,1,4  c0,0.1,0.1,0.2,0.1,0.3c0,0-3.4,1.7-5.2,2.5c-0.1,0-0.1,0.1-0.2,0.1c-1.1-1.8-2.7-3.6-4.5-4.2c-0.2-0.1-0.5,0.1-0.6,0.3  c-0.3,1-0.6,2-0.8,3c-0.9-0.4-1.8-0.8-2.6-1.1c-5.1-1.6-10.7-0.5-15.5,1.6c-8,3.5-14.6,9.7-20.8,15.7c-0.1,0.1-0.1,0.1-0.2,0.2  c-1.3-1-5.5-3.5-11.5,0.8c-7.2,5.3-20.1,14.4-20.1,14.4s-1.7,1.4-0.6,3c1.1,1.6,3.2,0.5,3.2,0.5l9.5-3.1c0,0,4.8-1.9,7.2-1.4  c-0.8,1.2-1.6,2.4-2.3,3.7c-0.8,1.4-1.1,2.2-0.4,3.9c0,0,0,0,0,0c0.4,0.6,0.7,1.3,1.1,1.9c0,0,0,0,0,0c1,1.4,1.8,1.5,3.3,1.6  c1,0,1.9,0,2.9-0.1c0.1,0.6,0.4,1.6,1,1.6c0.9-0.1,5.2-1.8,5.4,6s-1.1,14.3-1.1,17.6c0.1,3.2,0.4,8.7,8.8,7.6  c8.4-1.1,11.1-6.7,11.7-7.9c0.6-1.2,0.1-3.8-2.2-5.3c-2.3-1.4-2.3-3.1-1.7-4c0.6-0.9,1-3.1-1.3-5c-1.8-1.4-1.7-4.8,0.8-5.7  c2.5-0.9,11-4.9,11-4.9s3.1-1,3.1-5.1c0-2.5,0.4-3.8,0.7-4.4c0.1-0.2,0-0.3-0.2-0.4c0.4-0.2,0.7-0.3,1.1-0.5c0,0,0.1,0,0.1,0  c0.6-0.3,1.2-0.6,1.8-1c0.8-0.4,1.6-0.9,2.3-1.4c0.1,0,0.1-0.1,0.2-0.1c0.9-0.6,1.7-1.1,2.5-1.7c0,0,0,0,0.1,0l0,0  c0.2-0.2,0.4-0.3,0.5-0.4l0.1,0c0,0,0,0,0-0.1c0.1-0.1,0.3-0.2,0.4-0.4c0.2-0.1,0.3-0.2,0.4-0.4c0.2-0.2,0.4-0.4,0.6-0.5  c3.1-2.8,5.7-6.3,6.7-10.3c0.3-1.1,0.4-2.2,0.5-3.4c1.1,0.4,2.2,0.8,3.3,1.2c0.2,0.1,0.6-0.2,0.6-0.4c0-0.9-0.2-1.8-0.4-2.6  c-0.4-1.4-0.9-2.8-1.5-4.1c1.7-1.2,3.4-2.3,5.1-3.5c0.1,0.1,0.1,0.2,0.2,0.3c1.4,1.9,2.9,3.4,4,3.2c0.1,0,0.1,0,0.2-0.1  c0.1-0.1,0.3-0.2,0.3-0.4c0.3-0.9-0.4-2.8-1.3-4.8c1.9,2.7,4,4.9,5.4,4.6c0.1,0,0.2,0,0.3-0.1c0.2-0.1,0.3-0.3,0.4-0.5  c0.4-1.2-0.7-4.2-2.1-6.9c1.5,2.1,3.2,3.9,4.3,3.7c0.1,0,0.1,0,0.2-0.1c0.1-0.1,0.3-0.2,0.3-0.4c0.3-1-0.5-3.3-1.6-5.4  c0-0.1-0.1-0.2-0.2-0.3c0.9-0.6,1.8-1.2,2.7-1.9c0.4-0.3,0.7-0.5,1.1-0.8c0.2,0.1,0.3,0.2,0.5,0.2c1.1,0.3,2.4-0.3,3-1.3  C196.4,3.5,195.7,1.9,194.4,1.5z M108.1,41.5c-0.7,0.4-1.6,0.2-2-0.5c-0.4-0.7-0.2-1.6,0.5-2s1.6-0.2,2,0.5  C109.1,40.2,108.8,41,108.1,41.5z M112.5,39.3c-0.9,0.5-2,0.2-2.5-0.6c-0.5-0.9-0.2-2,0.6-2.5c0.9-0.5,2-0.2,2.5,0.6  C113.7,37.7,113.4,38.8,112.5,39.3z M116.9,37c-1,0.6-2.2,0.3-2.8-0.7c-0.6-1-0.3-2.2,0.7-2.8c1-0.6,2.2-0.3,2.8,0.7  C118.2,35.2,117.8,36.4,116.9,37z M124.9,45.5c-1,0.1-1.8-0.7-1.8-1.6c-0.1-0.9,0.7-1.8,1.6-1.8c1-0.1,1.8,0.7,1.8,1.6  C126.5,44.6,125.8,45.4,124.9,45.5z M134.1,42.6c-2.3,0.2-4.2-1.6-4.3-3.8c-0.2-2.3,1.6-4.2,3.8-4.3c2.3-0.2,4.2,1.6,4.3,3.8  S136.3,42.5,134.1,42.6z M151,50.5c-0.1,2.4-1.7,2.8-1.7,2.8l-3.5,1.6c-1.3-4,0.2-5.4,0.2-5.4l5.1-1.5C151.1,48,151.1,48,151,50.5z   M146.6,37.1c-3.2,0.2-6-2.2-6.2-5.5c-0.2-3.2,2.2-6,5.5-6.2c3.2-0.2,6,2.2,6.2,5.5C152.3,34.1,149.9,36.9,146.6,37.1z"></path>	<g>		<path class="st0" d="M177.5,26c0,0.9-0.4,1.7-1.1,2.3c1.1,3.5,1.7,7.2,1.7,11c0,18.8-14.4,34.3-32.8,36.1c0.5,0.9,0.7,1.9,0.8,2.8   C165.7,76,181,59.4,181,39.3c0-6.4-1.5-12.5-4.3-17.8c0.1,0.4,0.2,0.7,0.3,1.1C177.3,23.4,177.6,24.7,177.5,26z"></path>		<path class="st0" d="M141.9,3c7.6,0,14.7,2.3,20.5,6.4c0.3-0.7,0.8-1.3,1.5-1.6c0.2-0.1,0.5-0.2,0.7-0.3   c-6.4-4.6-14.2-7.3-22.7-7.3c-20.1,0-36.6,15.1-38.9,34.5c1.1-0.8,2.2-1.6,3.3-2.4C109.5,15.7,124.3,3,141.9,3z"></path>		<path class="st0" d="M110,56.6c-0.2-0.2-0.4-0.4-0.6-0.6l-0.2-0.1l-0.6-0.9c-0.4-0.7-0.8-1.3-1.1-2l-0.6-1l0.1-0.3   c-0.4-1.2-0.4-2.3-0.1-3.2c-0.1-0.2-0.1-0.4-0.1-0.5c0,0-0.1,0-0.1,0l-0.2,0.1l-2.5,0.8c2.5,9.5,8.4,17.7,16.4,23   c0.1-1.1,0.2-2.2,0.3-3.3C116.3,65.5,112.7,61.4,110,56.6z"></path>	</g></g></svg>